<?xml version="1.0" encoding="UTF-8" standalone="no"?>
<!-- Created with Inkscape (http://www.inkscape.org/) -->

<svg
   width="400mm"
   height="461.88019mm"
   viewBox="0 0 399.99999 461.88019"
   version="1.1"
   id="svg5"
   inkscape:version="1.1.2 (0a00cf5339, 2022-02-04)"
   sodipodi:docname="logo.svg"
   xmlns:inkscape="http://www.inkscape.org/namespaces/inkscape"
   xmlns:sodipodi="http://sodipodi.sourceforge.net/DTD/sodipodi-0.dtd"
   xmlns="http://www.w3.org/2000/svg"
   xmlns:svg="http://www.w3.org/2000/svg">
  <sodipodi:namedview
     id="namedview7"
     pagecolor="#ffffff"
     bordercolor="#666666"
     borderopacity="1.0"
     inkscape:pageshadow="2"
     inkscape:pageopacity="0.0"
     inkscape:pagecheckerboard="0"
     inkscape:document-units="mm"
     showgrid="false"
     inkscape:zoom="0.28685465"
     inkscape:cx="-3.486086"
     inkscape:cy="873.26455"
     inkscape:window-width="1920"
     inkscape:window-height="1019"
     inkscape:window-x="0"
     inkscape:window-y="0"
     inkscape:window-maximized="1"
     inkscape:current-layer="g885"
     inkscape:snap-global="false"
     fit-margin-top="0"
     fit-margin-left="0"
     fit-margin-right="0"
     fit-margin-bottom="0" />
  <defs
     id="defs2" />
  <g
     inkscape:label="Layer 1"
     inkscape:groupmode="layer"
     id="layer1"
     transform="translate(-203.31662,93.873152)">
    <g
       id="g885"
       transform="translate(286.25388,-19.765098)">
      <path
         sodipodi:type="star"
         style="fill:#0099f9;fill-opacity:1;stroke:none;stroke-width:21.0142;stroke-linecap:square;stroke-linejoin:miter;stroke-miterlimit:4;stroke-dasharray:none;stroke-opacity:1;paint-order:markers fill stroke"
         id="path25298"
         inkscape:flatsided="true"
         sodipodi:sides="6"
         sodipodi:cx="-207.11572"
         sodipodi:cy="-23.714916"
         sodipodi:r1="675.53064"
         sodipodi:r2="585.02673"
         sodipodi:arg1="1.0471976"
         sodipodi:arg2="1.5707963"
         inkscape:rounded="0"
         inkscape:randomized="0"
         d="m 130.64957,561.3118 -675.53064,-4e-5 -337.76529,-585.026709 337.76535,-585.026681 675.53064,4e-5 337.76529,585.026707 z"
         transform="matrix(0.29606354,0.17093237,-0.17093237,0.29606354,174.32851,199.25595)" />
      <g
         id="g859"
         transform="matrix(0.80985115,0,0,0.80985115,22.259345,51.048409)">
        <path
           id="rect11537"
           style="fill:#0099fa;fill-opacity:1;stroke:#ffffff;stroke-width:2.8449;stroke-linecap:square;stroke-linejoin:miter;stroke-miterlimit:4;stroke-dasharray:none;stroke-opacity:1;paint-order:markers fill stroke"
           d="m 221.03583,267.0543 h 18.5603 l -4.31971,4.31972 5.44805,5.44805 4.31959,-4.31958 v 6.10882 h 7.70469 l 2e-5,-6.10882 4.31958,4.31958 5.44805,-5.44805 -4.31972,-4.31972 h 6.10898 v -7.70458 h -6.10898 l 4.31972,-4.31971 -5.44805,-5.44792 -4.31958,4.31957 v -6.10893 h -7.70471 v 6.10893 l -4.31959,-4.31957 -5.44805,5.44792 4.31973,4.31971 h -18.56032 z"
           sodipodi:nodetypes="ccccccccccccccccccccccccc" />
        <text
           xml:space="preserve"
           style="font-size:57.1927px;line-height:1.25;font-family:Roboto;-inkscape-font-specification:Roboto;text-align:center;letter-spacing:0px;word-spacing:0px;text-anchor:middle;fill:#ffffff;stroke:none;stroke-width:2.8449;stroke-miterlimit:4;stroke-dasharray:none"
           x="97.166817"
           y="284.33649"
           id="text26604"><tspan
             sodipodi:role="line"
             style="font-style:normal;font-variant:normal;font-weight:normal;font-stretch:normal;font-family:'AvantGarde LT Medium';-inkscape-font-specification:'AvantGarde LT Medium, ';fill:#ffffff;stroke:none;stroke-width:2.8449;stroke-miterlimit:4;stroke-dasharray:none"
             x="97.166809"
             y="284.33649"
             id="tspan119425">shiny.mol</tspan></text>
      </g>
      <text
         xml:space="preserve"
         style="font-size:21.6439px;line-height:1.25;font-family:Roboto;-inkscape-font-specification:Roboto;text-align:center;letter-spacing:0px;word-spacing:0px;text-anchor:middle;fill:#ffffff;stroke-width:0.541099"
         x="112.30703"
         y="315.40402"
         id="text119511"><tspan
           sodipodi:role="line"
           style="font-style:normal;font-variant:normal;font-weight:normal;font-stretch:normal;font-family:'AvantGarde LT Medium';-inkscape-font-specification:'AvantGarde LT Medium, ';fill:#ffffff;stroke-width:0.541099"
           x="112.30703"
           y="315.40402"
           id="tspan119509">by  Appsilon</tspan></text>
      <g
         id="g137777"
         transform="matrix(4.8286113,2.0999261,-2.0999261,4.8286113,1310.1965,-1279.5053)"
         style="stroke-width:0.450917;stroke-miterlimit:4;stroke-dasharray:none">
        <path
           style="fill:none;stroke:#ffffff;stroke-width:0.450917;stroke-linecap:butt;stroke-linejoin:miter;stroke-miterlimit:4;stroke-dasharray:none;stroke-opacity:1"
           d="m -117.70046,323.17827 c 1.5219,1.0869 1.99027,1.86888 3.26274,2.11867 0.53836,0.10569 1.14917,0.11443 1.61684,-0.30799 0.44381,-0.40087 0.61449,-0.91675 0.79893,-1.49591 0.40016,-1.25653 0.79149,-2.612 1.63411,-3.59867 0.16619,-0.1946 0.39896,-0.38258 0.65414,-0.40185 0.81105,-0.0613 1.54328,0.54325 2.24738,0.95044 0.60154,0.34787 1.37484,0.62613 1.66141,1.25917 0.17348,0.38323 -0.16873,0.84532 -0.0909,1.25873 0.13834,0.73486 0.49005,1.44729 0.96413,2.02557 0.45541,0.55551 1.15303,0.85703 1.72638,1.28977 0.69374,0.5236 1.2491,1.30567 2.0735,1.58099 0.66591,0.22239 1.407686,0.0568 2.106135,-0.0143 0.26326,-0.0268 0.566055,-0.31234 0.778635,-0.15475 0.70047,0.51927 0.02473,1.76292 0.257952,2.6031 0.182047,0.65583 0.414505,1.34362 0.874813,1.84499 0.866886,0.94421 2.120334,1.49033 3.321543,1.93768 0.425513,0.15847 0.885483,0.22754 1.338968,0.25045 0.613037,0.031 1.242352,0.005 1.834968,-0.15443 0.678202,-0.18303 1.298479,-1.26029 1.903759,-0.90379 0.361095,0.21268 -4.77e-4,0.84329 0.07914,1.25473 0.109124,0.56393 0.222273,1.15817 0.540906,1.63608 0.329871,0.49477 0.884364,0.79615 1.3482,1.16826 0.482992,0.38748 0.986253,0.7494 1.491988,1.10668 0.162143,0.11455 0.862056,0.16758 0.494253,0.33229 -0.649224,0.38563 -1.451404,0.32317 -2.082734,0.69297 -0.52076,0.30504 -1.026391,0.70254 -1.338808,1.21891 -0.291368,0.48158 -0.39237,1.0718 -0.427532,1.63356 -0.03352,0.53548 0.232825,1.05976 0.210182,1.59581 -0.02713,0.64239 -0.278791,1.25535 -0.412244,1.88431 -0.07549,0.35578 0.03633,0.81047 -0.219739,1.06876 -0.363963,0.36712 -1.002551,0.26837 -1.516351,0.32546 -0.539469,0.0599 -1.089397,0.081 -1.628288,0.0161 -0.432396,-0.0521 -0.982897,0.008 -1.26604,-0.32292 -0.466981,-0.54579 -0.0077,-1.45412 -0.203178,-2.1453 -0.115528,-0.40839 -0.365062,-0.76655 -0.561764,-1.14263 -0.341748,-0.65341 -0.365222,-1.52971 -1.073848,-1.93402 -0.179373,-0.0832 -1.305747,0.0486 -2.010162,0.25892 -0.585016,0.17465 -1.359396,0.43925 -1.481759,0.65283 -0.242191,0.44489 0.348576,1.40748 0.529122,2.10963 0.08192,0.31858 0.105786,0.65329 0.360471,0.79228 0.278078,0.15175 0.695596,-0.33806 0.94044,-0.13704 0.09772,0.0807 0.07628,0.87655 0.06751,1.31556 -0.02207,1.1053 -0.0712,2.22162 -0.302059,3.30277 -0.09186,0.4302 -0.03777,1.04383 -0.427056,1.24867 -0.380845,0.2004 -0.878335,-0.11961 -1.243428,-0.34745 -0.987028,-0.61596 -1.608385,-1.68718 -2.320935,-2.60691 -0.37217,-0.48038 -0.96883,-0.90807 -1.01558,-1.51395 -0.0518,-0.41684 1.16615,-1.79676 1.31891,-2.82458 0.10216,-0.68741 -0.12157,-1.39088 -0.29458,-2.06396 -0.19928,-0.77527 -0.42591,-1.56684 -0.84917,-2.24626 -0.30679,-0.49246 -1.10365,-0.69646 -1.19009,-1.27019 -0.074,-0.49149 0.21191,-1.11236 0.65364,-1.34022 0.26835,-0.13842 0.65017,0.32705 0.8936,0.14841 0.62349,-0.45755 0.45864,-1.53585 0.32387,-2.29738 -0.11466,-0.64787 -0.48735,-1.25405 -0.92958,-1.7412 -0.58842,-0.64819 -1.3638,-1.1559 -2.18671,-1.45457 -0.92308,-0.33503 -1.94994,-0.40479 -2.9284,-0.32147 -0.90084,0.0767 -1.77674,0.39027 -2.60724,0.74758 -0.90382,0.38885 -1.90744,0.74861 -2.54179,1.50074 -0.5101,0.60482 -0.80532,1.42801 -0.84472,2.21824 -0.0191,0.38365 0.49799,0.78266 0.30094,1.11239 -0.15478,0.259 -0.58726,0.13889 -0.88149,0.20572 -0.36908,0.0838 -0.7892,0.042 -1.10872,0.24489 -0.40281,0.25573 -0.58305,0.75542 -0.87402,1.13356 -0.29527,0.38373 -0.58121,0.77478 -0.88468,1.15205 -0.50543,0.62835 -1.10524,1.18337 -1.55839,1.85041 -0.49022,0.72161 -1.05544,1.45216 -1.23977,2.30484 -0.0711,0.32889 -0.0384,0.68802 0.0683,1.00714 0.1347,0.40292 0.41444,0.74952 0.69584,1.0678 0.2088,0.23617 0.46342,0.43076 0.72306,0.60952 0.30075,0.20706 0.93722,0.39278 0.9584,0.53044 0.0531,0.3401 -0.3878,0.86993 -0.3975,1.08868 -0.001,0.32998 0.25236,0.4396 0.43993,0.60311 0.3666,0.31958 0.82078,0.54607 1.28502,0.69099 0.27836,0.0869 0.59565,0.22982 0.86937,0.0976 0.20021,-0.11537 0.7064,-0.84457 1.01296,-1.30062 0.36126,-0.53743 0.99054,-1.03682 0.96859,-1.68402 -0.009,-0.25666 -0.26147,-0.44519 -0.42848,-0.64027 -0.32029,-0.3741 -0.85331,-0.56736 -1.08659,-1.00108 -0.71703,-1.3331 -0.95895,-2.98694 -0.72625,-4.48265 0.0394,-0.25315 0.12855,-0.55261 0.3476,-0.68548 0.42402,-0.2572 0.99387,-0.0293 1.48769,0.0164 0.33294,0.0308 0.71119,-0.0143 0.98802,0.17325 0.39512,0.26767 0.39483,0.90217 0.75268,1.21795 0.40882,0.36076 0.66073,0.81448 1.07392,1.12933 0.42367,0.32285 0.87598,0.75389 1.40864,0.75451 0.91521,10e-4 1.81414,-0.60771 2.42333,-1.29072 0.39221,-0.43974 0.71427,-1.0592 0.6479,-1.64468 -0.0656,-0.57851 -0.54327,-1.06446 -0.9877,-1.44057 -0.87931,-0.74415 -2.48199,-0.50641 -3.13413,-1.45598 -0.60328,-0.87841 -0.78067,-2.28569 -0.21623,-3.18955 0.42421,-0.6793 1.42621,-0.85177 2.22524,-0.90602 0.72983,-0.0496 1.51764,0.13859 2.12572,0.54521 0.67869,0.45383 1.67114,1.16915 1.46874,1.96011 -0.0344,0.13443 -0.30385,0.0556 -0.37897,0.17229 -0.13169,0.20452 -0.13928,0.53032 0,0.72975 0.20225,0.28958 0.83749,0.0486 0.99487,0.36481 0.14346,0.28825 -0.21378,0.60923 -0.28152,0.924 -0.0671,0.31171 -0.11709,0.62989 -0.12228,0.94869 -0.003,0.18185 -0.028,0.37986 0.0521,0.54314 0.13825,0.28179 0.47059,0.41672 0.68629,0.64474 0.33231,0.35129 0.66386,0.7091 0.93309,1.11077 0.25689,0.38325 0.44908,0.80714 0.64201,1.22624 0.0758,0.1646 0.21797,0.32424 0.20191,0.50474 -0.0469,0.52657 -0.63586,0.85763 -0.83978,1.34536 -0.18181,0.43484 -0.17468,0.92969 -0.32786,1.37543 -0.14681,0.42719 -0.43845,1.05246 -0.56248,1.2329 -0.25266,0.3291 -1.88768,0.63577 -2.26593,1.44852 -0.15141,0.32534 -0.0123,0.74264 0.14045,1.06733 0.30939,0.65743 0.93404,1.12177 1.48402,1.5966 0.8338,0.71988 1.75614,1.34459 2.72284,1.87273 0.34575,0.18889 0.70181,0.38896 1.08977,0.45762 0.471377,0.0834 0.959931,-0.005 1.434505,-0.0678 0.43287,-0.0572 0.870996,-0.12626 1.279575,-0.28025 0.551007,-0.20767 1.050166,-0.53712 1.545807,-0.85505 0.537227,-0.3446 1.132677,-0.64592 1.541031,-1.13644 0.405872,-0.48754 0.6406,-1.12817 0.833111,-1.71107 0.09269,-0.28065 -0.0064,-0.80299 0.162735,-0.87162 0.05173,-0.0322 0.310024,0.008 0.607049,0.0862 0.461704,0.12145 1.148299,0.29033 1.607506,0.29038 0.754386,9e-5 1.552548,-0.0105 2.24037,-0.32036 0.283512,-0.12771 0.496525,-0.37879 0.710803,-0.60412 0.347065,-0.36497 0.734899,-0.73038 0.919396,-1.19901 0.179821,-0.45676 0.10978,-0.97599 0.141078,-1.46587 0.05057,-0.79159 -0.0073,-1.58953 0.07532,-2.37842 0.05349,-0.5111 -0.01771,-1.09271 0.271328,-1.51762 0.289499,-0.42559 0.836434,-0.61903 1.313968,-0.81111 0.580142,-0.23336 1.229101,-0.23599 1.834015,-0.39442 0.306689,-0.0803 0.63157,-0.12713 0.908489,-0.28148 0.24211,-0.13496 0.526993,-0.28766 0.627046,-0.54615 0.09787,-0.14238 0.01104,-0.62693 -0.108592,-0.93485 -0.09507,-0.2447 -0.330125,-0.41121 -0.525302,-0.58677 -0.487262,-0.43829 -1.309735,-0.55952 -1.59509,-1.14952 -0.243066,-0.50256 -0.04567,-1.1282 0.07595,-1.67304 0.193469,-0.8667 0.722927,-1.62409 1.022416,-2.46009 0.253927,-0.70882 0.598002,-1.41102 0.654795,-2.16181 0.03969,-0.52462 0.183481,-0.94785 -0.225107,-1.56224 -0.271209,-0.40781 -0.852092,-1.07621 -1.306073,-1.3289 -0.778627,-0.43339 -1.407503,-1.04349 -2.241333,-0.94193 -0.228236,0.0278 -0.406888,0.23311 -0.556191,0.40796 -0.191745,0.22456 -0.203096,0.57262 -0.405559,0.78756 -0.449944,0.47768 -1.174472,0.60239 -1.693257,1.00425 -0.550451,0.42639 -0.987416,0.98194 -1.480841,1.4732 -0.52651,0.52419 -0.914706,1.24032 -1.578927,1.57319 -0.518576,0.25988 -1.219112,0.54189 -1.721755,0.25239 -0.274437,-0.15806 -0.301117,-0.56978 -0.352536,-0.88228 -0.199822,-1.21441 -0.285548,-2.55558 0.199197,-3.68684 0.611554,-1.42719 2.913581,-1.86308 3.194476,-3.39016 0.09664,-0.5254 -0.27353,-1.06792 -0.612079,-1.48116 -0.522289,-0.63752 -1.299683,-1.04468 -2.054548,-1.37544 -0.461758,-0.20233 -1.033154,-0.60442 -1.470494,-0.35364 -0.299379,0.17167 -0.124332,0.69371 -0.299511,0.99105 -0.406093,0.68928 -1.025042,1.25162 -1.673031,1.7208 -0.912109,0.66042 -1.985629,1.07588 -3.03621,1.48132 -0.62697,0.24196 -1.38906,0.95278 -1.93608,0.5624 -0.59064,-0.42151 -0.21166,-1.4565 -0.10541,-2.1743 0.14437,-0.97533 0.79549,-1.82024 0.99296,-2.78622 0.0712,-0.34851 0.0323,-0.71096 0.065,-1.06516 0.0247,-0.26746 -0.002,-0.55068 0.0992,-0.79968 0.131,-0.32381 0.35538,-0.62171 0.63035,-0.83713 0.17561,-0.13757 0.39326,-0.2428 0.615439,-0.26291 0.250384,-0.0226 0.711255,0.24029 0.735504,0.16699 0.09055,-0.2737 0.120469,-0.60904 -0.01259,-0.86479 -0.536133,-1.03049 -1.665813,-1.9558 -2.824263,-2.0415 -0.75938,-0.0562 -1.47169,0.53143 -2.02811,1.05124 -0.71725,0.67006 -1.29105,1.56406 -1.52961,2.51617 -0.10038,0.40063 0.18466,0.62168 0.0684,1.23715 -0.10901,0.57698 -1.20521,-0.21801 -1.7966,-0.37445 -0.73145,-0.19349 -1.40761,-0.62066 -2.16044,-0.69615 -0.48386,-0.0485 -1.00605,-0.0362 -1.44975,0.16281 -0.38114,0.17094 -0.69677,0.49226 -0.93266,0.837 -0.17721,0.25899 -0.21936,0.58807 -0.33231,0.88085 -0.27786,0.72022 -0.54173,1.44651 -0.84965,2.1544 -0.20433,0.46976 -0.30977,1.01471 -0.66144,1.38721 -0.10834,0.11476 -0.2573,0.23514 -0.41496,0.22801 -1.05372,-0.0476 -1.66018,-1.34051 -2.62455,-1.76781 -0.30034,-0.13308 -0.61578,-0.39393 -0.95693,-0.23561 -0.19582,0.0909 -0.29346,0.475 -0.28586,0.69074 0.008,0.22211 0.0538,0.25742 0.20052,0.4244 0,0 0.0638,0.0616 0,2.4e-4 z"
           id="path120497"
           sodipodi:nodetypes="casssaaaaaaaaaaaaaaaaaaaccaaaaaaaaaacsccaccaaaacaaaaaaaaaaaaaaaaaaaaaaaccaacaaaaaaaasaaaaaaaaaaaaaaaaaaaaaacaaaaaaaaaccssaaaaaaaaacsaaaaasssaaaaaaaaaaaaaaaaaaaaaasaaaasaaaaaaaaaccccc" />
        <path
           style="fill:none;stroke:#ffffff;stroke-width:0.450917;stroke-linecap:round;stroke-linejoin:round;stroke-miterlimit:4;stroke-dasharray:none;stroke-opacity:1"
           d="m -101.07508,319.94574 c 0,0 0.94447,-0.46156 1.275021,-0.85129 0.354195,-0.4176 0.67696,-1.49678 0.67696,-1.49678"
           id="path121333"
           sodipodi:nodetypes="cac" />
        <path
           style="fill:none;stroke:#ffffff;stroke-width:0.450917;stroke-linecap:round;stroke-linejoin:miter;stroke-miterlimit:4;stroke-dasharray:none;stroke-opacity:1"
           d="m -105.41251,319.36237 c 0,0 -0.0345,0.89466 -0.0957,1.33739 -0.0828,0.59948 -0.36627,1.77818 -0.36627,1.77818"
           id="path121368"
           sodipodi:nodetypes="cac" />
        <path
           style="fill:none;stroke:#ffffff;stroke-width:0.450917;stroke-linecap:butt;stroke-linejoin:miter;stroke-miterlimit:4;stroke-dasharray:none;stroke-opacity:1"
           d="m -96.342937,322.62643 c 0,0 -0.907612,1.18218 -1.233014,1.84711 -0.126429,0.25834 -0.203137,0.53955 -0.272759,0.81862 -0.118663,0.47564 -0.218129,0.96062 -0.244978,1.4501 -0.02266,0.41313 0.07166,1.23918 0.07166,1.23918"
           id="path121763"
           sodipodi:nodetypes="caaac" />
        <path
           style="fill:none;stroke:#ffffff;stroke-width:0.450917;stroke-linecap:butt;stroke-linejoin:miter;stroke-miterlimit:4;stroke-dasharray:none;stroke-opacity:1"
           d="m -87.360971,327.00531 c 0,0 0.240026,0.59841 0.218544,0.90945 -0.03301,0.47802 -0.348064,0.89288 -0.524823,1.33824 -0.294577,0.74222 -0.73227,1.4408 -0.892804,2.22303 -0.1304,0.6354 -0.04462,1.94542 -0.04462,1.94542"
           id="path122933"
           sodipodi:nodetypes="caaac" />
        <path
           style="fill:none;stroke:#ffffff;stroke-width:0.450917;stroke-linecap:butt;stroke-linejoin:miter;stroke-miterlimit:4;stroke-dasharray:none;stroke-opacity:1"
           d="m -92.738948,347.1551 c 0,0 -0.950619,-0.0528 -1.352663,-0.27683 -0.544395,-0.30331 -0.927452,-0.84813 -1.282599,-1.36022 -0.231748,-0.33416 -0.679223,-0.71359 -0.537996,-1.09493 0.110591,-0.29862 0.644713,-0.15958 0.878139,-0.37618 0.303095,-0.28125 0.572225,-1.10058 0.572225,-1.10058"
           id="path123272"
           sodipodi:nodetypes="caaaac" />
        <path
           style="fill:none;stroke:#ffffff;stroke-width:0.450917;stroke-linecap:butt;stroke-linejoin:miter;stroke-miterlimit:4;stroke-dasharray:none;stroke-opacity:1"
           d="m -93.635694,348.19902 c 0,0 -0.274363,-0.0964 -0.41071,-0.14695 -0.318336,-0.11793 -0.675281,-0.1664 -0.950987,-0.36447 -0.336256,-0.24157 -0.557112,-0.61597 -0.791442,-0.95731 -0.223731,-0.3259 -0.417381,-0.67395 -0.581402,-1.03362 -0.115384,-0.25302 -0.209615,-0.72552 -0.280833,-0.78558 -0.07943,-0.0168 -0.57535,0.39024 -0.57535,0.39024"
           id="path123587"
           sodipodi:nodetypes="caaaacc" />
        <path
           style="fill:none;stroke:#ffffff;stroke-width:0.450917;stroke-linecap:butt;stroke-linejoin:miter;stroke-miterlimit:4;stroke-dasharray:none;stroke-opacity:1"
           d="m -112.27082,339.9196 c 0.30742,0.0732 0.55159,0.20111 0.8196,0.3203 0.37036,0.16471 0.72843,0.356 1.08722,0.54459 0.43066,0.22636 0.90028,0.39813 1.27844,0.70424 0.11419,0.0924 0.26296,0.1886 0.2884,0.3333 0.0142,0.0807 -0.0125,0.19729 -0.0878,0.22961 -0.1076,0.0462 -0.22052,-0.0808 -0.32427,-0.13507 -0.20204,-0.1057 -0.38948,-0.23779 -0.57614,-0.36873 -0.10156,-0.0712 -0.19364,-0.15544 -0.29536,-0.22645 -0.40793,-0.28477 -0.85048,-0.51738 -1.2607,-0.79883 -0.18103,-0.1242 -0.34324,-0.27535 -0.5291,-0.3922 -0.12766,-0.0803 -0.54699,-0.24567 -0.40029,-0.21076 z"
           id="path125308"
           sodipodi:nodetypes="saaaaaaaaaas" />
        <path
           style="fill:none;stroke:#ffffff;stroke-width:0.450917;stroke-linecap:butt;stroke-linejoin:miter;stroke-miterlimit:4;stroke-dasharray:none;stroke-opacity:1"
           d="m -110.39668,336.95438 c 0,0 -0.95794,0.0682 -1.43781,0.0744 -0.46812,0.006 -1.404,-0.0365 -1.404,-0.0365"
           id="path126069"
           sodipodi:nodetypes="cac" />
        <path
           style="fill:none;stroke:#ffffff;stroke-width:0.450917;stroke-linecap:butt;stroke-linejoin:miter;stroke-miterlimit:4;stroke-dasharray:none;stroke-opacity:1"
           d="m -113.11799,346.19731 c -0.0986,-0.0418 -0.94345,-0.11264 -1.35827,-0.32372 -0.45601,-0.23204 -0.68915,-0.81368 -1.16663,-0.99755 -0.12443,-0.0479 -0.28514,-0.0791 -0.39987,-0.0111 -0.35944,0.21291 -0.30267,1.04386 -0.57152,1.11541 -0.17264,0.019 -0.80903,-0.7947 -1.20305,-1.20237 -0.19699,-0.20382 -0.51886,-0.34487 -0.58031,-0.62159 -0.0876,-0.39431 0.18471,-0.79582 0.37426,-1.1525 0.20987,-0.39491 0.53252,-0.71976 0.8257,-1.05746 0.20809,-0.23969 0.44808,-0.45006 0.66081,-0.68564 0.28192,-0.31221 0.57228,-0.61996 0.81489,-0.96361 0.16512,-0.23389 0.29549,-0.49069 0.43236,-0.74216 0.0872,-0.16015 0.23136,-0.30623 0.24742,-0.48786 0.0159,-0.17988 -0.0312,-0.38854 -0.15645,-0.51867 -0.0846,-0.088 -0.22448,-0.11109 -0.34628,-0.11919 -0.11949,-0.008 -0.35219,0.0709 -0.35219,0.0709"
           id="path126445"
           sodipodi:nodetypes="caaaccaaaaaaaaac" />
      </g>
    </g>
  </g>
</svg>
